<?xml version="1.0" encoding="UTF-8"?>
<svg id="Layer_2" data-name="Layer 2" xmlns="http://www.w3.org/2000/svg" viewBox="0 0 2772.98 772.62">
  <g id="ARTWORK">
    <g>
      <polygon points="268.69 347.96 172.43 347.96 172.43 144.64 73.09 144.64 73.09 347.96 0 347.96 0 463.78 73.09 463.78 172.43 463.78 268.69 463.78 368.03 463.78 368.03 347.96 368.03 0 268.69 0 268.69 347.96"/>
      <path d="M571.17,177.07c-21.62,0-41.95,3.61-60.99,10.81-19.05,7.2-35.77,17.33-50.19,30.36-14.41,13.05-25.66,28.32-33.71,45.81-8.07,17.51-12.1,36.72-12.1,57.65,0,25.74,6.44,49.42,19.3,71.03,12.87,21.62,31.06,38.86,54.56,51.73,23.5,12.87,51.21,19.3,83.13,19.3h16.98v1.03c0,10.98-4.55,19.73-13.64,26.25-9.1,6.51-26.34,9.77-51.73,9.77h-84.93v115.82h84.93c33.28,0,62.28-6.17,86.99-18.53,24.71-12.36,43.83-29.94,57.39-52.76,13.55-22.82,20.33-49.67,20.33-80.55V205.9c-15.79-6.86-33.8-13.39-54.05-19.56-20.25-6.18-41.01-9.27-62.28-9.27ZM571.17,359.8c-13.05,0-23.85-1.98-32.43-5.93-8.59-3.93-14.93-8.83-19.05-14.67-4.12-5.83-6.18-11.49-6.18-16.98,0-6.18,2.32-12.43,6.95-18.79,4.63-6.34,11.24-11.66,19.82-15.95,8.57-4.29,18.87-6.44,30.88-6.44,5.44,0,11.1.57,16.98,1.68v77.08h-16.98Z"/>
      <path d="M975.94,347.96h-81.84c-.7,0-1.37.36-2.03,1.03-.65-.68-1.33-1.03-2.03-1.03h-54.05V0h-99.34v463.78h153.39c.7,0,1.37-.36,2.03-1.05.65.69,1.33,1.05,2.03,1.05h181.18V187.36h-99.34v160.6Z"/>
      <path d="M991.89,517.31c-15.79,0-28.66,4.97-38.6,14.93-9.96,9.95-14.93,22.81-14.93,38.61s4.97,28.56,14.93,38.34c9.95,9.78,22.81,14.67,38.6,14.67s28.65-4.89,38.6-14.67c9.95-9.78,14.93-22.57,14.93-38.34s-4.98-28.66-14.93-38.61c-9.96-9.96-22.82-14.93-38.6-14.93Z"/>
      <path d="M1409.12,659.37c-12.02,0-21.87,3.94-29.6,11.83-7.72,7.89-11.58,17.84-11.58,29.86s3.86,21.78,11.58,29.34c7.72,7.54,17.58,11.32,29.6,11.32s21.96-3.78,29.86-11.32c7.89-7.56,11.84-17.34,11.84-29.34s-3.95-21.97-11.84-29.86c-7.9-7.89-17.85-11.83-29.86-11.83Z"/>
      <path d="M1631.74,378.08c-12.53-10.81-26.43-20.93-41.69-30.37-15.27-9.44-30.63-18.61-46.07-27.54-9.26-5.14-17.24-9.78-23.93-13.9-6.69-4.12-12.28-7.8-16.73-11.07-4.47-3.25-7.81-6.34-10.04-9.26-2.24-2.91-3.34-5.92-3.34-9.01,0-6.17,4.37-11.66,13.12-16.46,8.75-4.81,21.01-7.21,36.8-7.21,9.95,0,21.7,1.21,35.26,3.61,13.55,2.41,27.19,7.04,40.92,13.9l43.24-86.48c-20.94-12.36-41.69-21.87-62.28-28.56-20.59-6.69-42.04-10.04-64.34-10.04-24.03,0-44.96,3.69-62.8,11.06-17.85,7.39-32.61,17.17-44.27,29.34-11.67,12.19-20.42,25.57-26.25,40.15-5.84,14.59-8.75,28.92-8.75,42.98,0,16.82,3.61,31.66,10.81,44.53,7.2,12.87,16.64,24.37,28.31,34.48,11.66,10.13,24.36,19.22,38.09,27.29,13.72,8.07,27.1,15.7,40.15,22.9,8.58,4.46,16.81,9.1,24.71,13.9,7.89,4.82,15.01,9.52,21.36,14.15,6.35,4.64,11.32,9.36,14.93,14.15,3.6,4.82,5.4,9.61,5.4,14.42,0,6.87-4.03,13.98-12.09,21.36-8.07,7.37-21.02,13.55-38.86,18.53-17.84,4.97-41.36,7.47-70.51,7.47-49.42,0-85.02-9.19-106.81-27.54-21.8-18.35-32.69-48.81-32.69-91.36,0-8.24.43-16.64,1.29-25.22.85-8.58,2.14-18.54,3.86-29.86l-90.59-18.02c-2.06,13.05-3.6,25.83-4.63,38.35-1.03,12.53-1.54,24.62-1.54,36.29,0,48.38,9.01,89.99,27.02,124.82,18.01,34.83,44.34,61.59,79.01,80.29,34.65,18.7,77.21,28.05,127.65,28.05,32.6,0,61.08-3.6,85.44-10.8,24.36-7.2,45.04-16.82,62.03-28.83,16.98-12.01,30.71-25.14,41.18-39.38,10.46-14.24,18.02-28.4,22.65-42.46,4.63-14.07,6.95-26.95,6.95-38.61,0-16.13-3.86-30.79-11.58-44.01-7.72-13.2-17.85-25.22-30.37-36.02Z"/>
      <path d="M1502.8,659.37c-12.02,0-21.87,3.94-29.6,11.83-7.72,7.89-11.58,17.84-11.58,29.86s3.86,21.78,11.58,29.34c7.72,7.54,17.58,11.32,29.6,11.32s21.95-3.78,29.86-11.32c7.89-7.56,11.84-17.34,11.84-29.34s-3.95-21.97-11.84-29.86c-7.9-7.89-17.85-11.83-29.86-11.83Z"/>
      <path d="M1887.73,209.5c-34.66-29.16-75.84-49.23-123.53-60.22l-21.11,107.07c33.28,8.24,61.42,21.79,84.42,40.66,17.48,14.35,31.72,31.35,42.75,50.95h-161.66v115.82h288.76c-.34-53.87-10.04-102.43-29.08-145.67-19.04-43.24-45.9-79.44-80.55-108.61Z"/>
      <path d="M2414.87,690.26c-12.02,0-21.87,3.94-29.6,11.83-7.72,7.89-11.58,17.84-11.58,29.86s3.86,21.78,11.58,29.34c7.72,7.54,17.58,11.32,29.6,11.32s21.95-3.78,29.86-11.32c7.89-7.56,11.84-17.34,11.84-29.34s-3.95-21.97-11.84-29.86c-7.9-7.89-17.85-11.83-29.86-11.83Z"/>
      <path d="M2321.19,690.26c-12.02,0-21.87,3.94-29.6,11.83-7.72,7.89-11.58,17.84-11.58,29.86s3.86,21.78,11.58,29.34c7.72,7.54,17.58,11.32,29.6,11.32s21.96-3.78,29.86-11.32c7.89-7.56,11.84-17.34,11.84-29.34s-3.95-21.97-11.84-29.86c-7.9-7.89-17.85-11.83-29.86-11.83Z"/>
      <path d="M2689.6,517.31c-15.79,0-28.66,4.97-38.6,14.93-9.96,9.95-14.93,22.81-14.93,38.61s4.97,28.56,14.93,38.34c9.95,9.78,22.81,14.67,38.6,14.67s28.65-4.89,38.6-14.67c9.95-9.78,14.93-22.57,14.93-38.34s-4.98-28.66-14.93-38.61c-9.96-9.96-22.82-14.93-38.6-14.93Z"/>
      <path d="M2673.64,187.36v160.6h-123.4c-14.76,0-28.74-1.11-41.95-3.34-13.21-2.23-24.37-4.89-33.46-7.98-9.1-3.09-15.19-6.17-18.27-9.27l-70.01,82.36c11.16,10.96,24.18,20.04,38.65,27.67l-.04.13c1.29.59,2.43,1.17,3.7,1.76,3.13,1.56,6.26,3.13,9.54,4.54,6.2,3.05,12.16,6.09,17.64,9.13,9.26,5.15,16.64,10.3,22.13,15.44,5.49,5.15,8.24,10.98,8.24,17.51,0,6.86-4.03,13.98-12.09,21.36-8.07,7.37-21.02,13.55-38.86,18.53-17.84,4.97-41.36,7.47-70.51,7.47-49.42,0-85.02-9.19-106.81-27.54-21.8-18.36-32.69-48.81-32.69-91.36,0-8.24.43-16.64,1.29-25.22.85-8.58,2.14-18.54,3.86-29.86l-90.59-18.02c-2.06,13.05-3.6,25.83-4.63,38.35-1.03,12.53-1.54,24.62-1.54,36.29,0,48.38,9.01,89.99,27.02,124.82,18.01,34.83,44.43,61.59,79.27,80.29,34.83,18.7,77.47,28.05,127.91,28.05,32.6,0,61.07-3.6,85.44-10.8,24.36-7.2,44.95-16.82,61.77-28.83,16.81-12.01,30.45-25.22,40.92-39.63,10.46-14.41,18.02-29,22.65-43.75,4.63-14.76,6.95-28.49,6.95-41.18,0-7.41-.86-14.38-2.18-21.1h189.41V187.36h-99.34Z"/>
    </g>
  </g>
</svg>