<?xml version="1.0" encoding="UTF-8"?>
<svg id="Layer_2" data-name="Layer 2" xmlns="http://www.w3.org/2000/svg" viewBox="0 0 469.79 233.73">
  <defs>
    <style>
      .cls-1 {
        fill: #572700;
      }
    </style>
  </defs>
  <g id="Livello_1" data-name="Livello 1">
    <g>
      <g>
        <path class="cls-1" d="M205.61,27.64c5.94-4.87,7.12-6.06,7.12-6.06-12.65-1.6-39.52,18.77-60.01,42.47-25.86,29.56-50.26,70.22-65.48,108.43l-.02.04c-.62-1.64-1.74-3.97-.68-11.17,1.34-9,2.66-13.86,6.93-27.88,4.5-14.29,6.86-22.19,7.25-23.48,3.99-12.24,6.31-19.89,7.4-23.2,1.94-6.38,3.37-13.3,4.44-20.5C117.79,31.1,104.58,1.36,77.34.05,43.82-1.54,7.63,36.3,1.36,78.45c-5.3,35.46,4.7,58.04,33.08,54.66.25-.03.48-.06.71-.09l-7.47-4.03c-17.52-3.57-22.94-25.88-17.2-56.35C18.3,31.12,47.47,2.52,75.06,4.54c22.07,1.63,29.83,21.72,25.69,49.47-1.78,12.08-3.69,19.49-12.27,46.54-6.11,18.59-8.88,29.07-10.12,37.56-2.28,15.17,2.12,28.14,7.46,42.62l-.03-.17c0,.06.03.11.05.17l1.66-.31s38.66-75.76,65.77-107.02c17.99-20.77,45.16-46.66,52.35-45.76"/>
        <path class="cls-1" d="M147.11,137.93c2.55-4.3,7.25-10.74,12.23-16.74,8.46-9.43,14.88-13.9,20.4-13.88,1.96,0,3.71,3.05,2.45,5.59-6.09,12.41-14.54,19.57-36.79,28.45,0,0,.74-1.29,1.72-3.43M454.28,147.46c-5.1,6.62-10.83,13.27-14.97,16.67-6.44,5.76-10.08,7.53-12.05,7.52-1.4,0-3.19-.65-3.15-1.96.03-.96-.27-.97,2.69-7.95l1.15-2.51,25.83-51.02s-10.82-1.56-19.51,9.24c-3.24,4.02-14.33,22.93-14.33,22.93-1.23,2.39-1.26,1.66-2.11,3.67-7.5,8.86-17.78,19.29-23.13,22.86-7.04,4.7-8.82,5.61-10.81,5.68-2.16.06-3.22-.52-3.51-2.03-.19-1.08,2.1-5.81,6.01-12.46l11.81-19.55c5.31-8.81,6.78-14.84,5.49-21.74-1.24-6.68-5.95-11.31-11.02-12.16-6.51-1.09-14.92,5.79-26.59,18.48-6.38,6.96-7.08,8.23-8.92,9.95l-6.43,7.11s12.62-25.14,25.01-49.13c12.39-23.99,14.75-27.42,20.02-35.85,5.28-8.44,12.67-18.19,18.76-22.18,2.81-2.57,6.68-5.9,6.68-5.9-4.4-.02-10.08.19-15.95,4.36-8.5,6.02-16.85,17.07-26.09,30.84-4.57,6.8-18.14,31.1-27.95,50.33l-8.3,14.9-8.21,13.07-3.57,4.34c-17.01,18.3-29.52,27.35-39.14,27.28-3.32-.02-6.59-.18-7.24-2.56-3.51-6.85,1.93-22.43,13.52-37.31,11.32-14.55,21.32-25.91,37.6-24.45l7.08-3.6c-5.21-2.69-18.08-1.56-22.21-.67-7.93,1.28-16.87,5.88-24.83,11.99-11.6,8.95-18.26,17.81-20.93,28.79-12.33,14.25-27.44,28-33.22,27.93-1.41-.01-2.62-.45-2.95-1.62-.55-1.89-.4-1.46,4.9-12l14.24-23.64c3.49-5.79,5.1-13.11,4.07-18.72-1.36-7.34-5.54-11.8-11.65-11.83-9.79-.05-18.04,8.39-34.29,24.59l-1.59,1.98,11.84-24.26s-12.99.55-20.11,11.42c-3.69,5.64-13.61,21.52-13.61,21.52-3.43,3.58-12.29,12.14-18.19,16.87-13.17,10.47-21.81,14.68-31.23,14.62-4.52-.02-7.12-.5-7.8-4.17-.8-4.31.46-8.18,7.23-21.49,5.69-1.04,19.1-7,28.48-12.55,10.59-6.4,17.44-16.07,16.31-22.31-.72-3.88-4.3-6.27-9.42-6.3-10.01-.05-22.08,4.61-32.01,12.52-15.76,12.42-24.28,29.58-21.65,43.82,1.64,8.84,9.2,15.1,18.19,15.16,10.03.06,19.87-3.95,32.32-13.14,3.9-2.97,7.3-5.8,10.16-8.36l-9.77,18.93,17.67.1,6.91-13.53c3.85-7.73,9.53-18.67,20.3-29.21,16.21-15.82,21.4-21.14,28.68-22.7,1.62-.35,3.8,1.08,3.99,2.16.3,2.59.75.69-6.99,14.01l-9.57,15.9c-6.73,10.52-8.75,17.84-7.44,24.97,1.11,6.04,6.58,11,11.9,11.03,5.1.03,10.61-2.93,18.82-10.44,5.59-5.01,10.19-9.48,13.67-13.27-.23,3.08-.09,6.15.46,9.17,1.76,9.53,8.09,15.16,16.93,15.22,7.84.04,15.66-3.34,25.91-11.51,4.07-3.25,7.7-6.59,10.93-9.85l-9.6,18.71,17.66.1,2.92-5.5c6.4-13.11,16.08-25.82,29.02-40.61,10.19-11.8,17.63-18.74,22.96-18.7,1,0,2.42.65,2.69,1.5.42,1.39,1.73,1.44-2.73,9.39l-14.2,22.77c-5.08,8.39-6.74,15.27-5.47,22.17,1.24,6.68,5.97,11.22,11.82,11.25,5.15.03,11.09-3.13,20.11-11.07,4.31-3.97,8.04-7.58,11.11-10.83-.86,3.82-.9,7.11-.26,10.54,1.26,6.87,5.89,12.32,10.83,12.36,5.14.03,12.92-4.92,21.58-13.67,5.47-5.76,9.5-10.66,12.27-14.93l-1.98-.73-1.87-.78Z"/>
        <path class="cls-1" d="M457.47,80.47c-.81.68-2.21,2.28-3.79,4.54l-.24.41-6.01,10.51s7.7,2.59,12.36-1.76c.76-.71,2.26-2.7,3.68-4.71l.15-.2,6.17-10.3s-7.35-2.62-12.32,1.52"/>
      </g>
      <g>
        <rect class="cls-1" x="187.16" y="205.34" width="4.92" height="27.99"/>
        <polygon class="cls-1" points="212.8 233.33 207.84 233.33 207.84 209.9 198.97 209.9 198.97 205.34 221.68 205.34 221.68 209.9 212.8 209.9 212.8 233.33"/>
        <path class="cls-1" d="M236.8,211.02l-4.8,11.2h9.64l-4.84-11.2ZM251.48,233.33h-5.2l-2.84-6.76h-13.24l-2.88,6.76h-5.04l12.32-28.2h4.56l12.32,28.2Z"/>
        <polygon class="cls-1" points="257.68 205.34 262.6 205.34 262.6 228.85 277.32 228.85 277.32 233.33 257.68 233.33 257.68 205.34"/>
        <rect class="cls-1" x="284.12" y="205.34" width="4.92" height="27.99"/>
        <path class="cls-1" d="M310.04,211.02l-4.8,11.2h9.64l-4.84-11.2ZM324.72,233.33h-5.2l-2.84-6.76h-13.24l-2.88,6.76h-5.04l12.32-28.2h4.56l12.32,28.2Z"/>
        <polygon class="cls-1" points="349.28 205.14 352.72 205.14 352.72 233.33 347.84 233.33 347.84 210.14 342.8 211.54 341.76 207.54 349.28 205.14"/>
        <path class="cls-1" d="M370.56,209.06c-3,0-5,1.76-5,3.92,0,2.48,2.12,4.2,5,4.2s5-1.72,5-4.16c0-2.2-2-3.96-5-3.96M370.56,221.09c-3.32,0-5.88,1.68-5.88,4.28,0,2.36,2.2,4.24,5.88,4.24s5.88-1.88,5.88-4.24c0-2.6-2.56-4.28-5.88-4.28M370.56,233.73c-6.12,0-10.68-3.2-10.68-8.04,0-3.44,1.88-5.56,5.04-6.88-2.36-1.24-4.08-3.12-4.08-6.28,0-4.32,4.12-7.6,9.72-7.6s9.72,3.28,9.72,7.6c0,3.16-1.72,5.04-4.08,6.28,3.04,1.4,5.04,3.4,5.04,6.76,0,5.04-4.56,8.16-10.68,8.16"/>
        <polygon class="cls-1" points="386.88 205.34 406.56 205.34 406.56 209.06 393.92 233.33 388.4 233.33 400.96 209.66 386.88 209.66 386.88 205.34"/>
        <path class="cls-1" d="M422.12,209.06c-3,0-5,1.76-5,3.92,0,2.48,2.12,4.2,5,4.2s5-1.72,5-4.16c0-2.2-2-3.96-5-3.96M422.12,221.09c-3.32,0-5.88,1.68-5.88,4.28,0,2.36,2.2,4.24,5.88,4.24s5.88-1.88,5.88-4.24c0-2.6-2.56-4.28-5.88-4.28M422.12,233.73c-6.12,0-10.68-3.2-10.68-8.04,0-3.44,1.88-5.56,5.04-6.88-2.36-1.24-4.08-3.12-4.08-6.28,0-4.32,4.12-7.6,9.72-7.6s9.72,3.28,9.72,7.6c0,3.16-1.72,5.04-4.08,6.28,3.04,1.4,5.04,3.4,5.04,6.76,0,5.04-4.56,8.16-10.68,8.16"/>
      </g>
    </g>
  </g>
</svg>