<svg xmlns="http://www.w3.org/2000/svg" width="32" height="32" fill="none" viewBox="0 0 32 32">
<style>
@media (prefers-color-scheme: dark) {
.a { fill: #f0f0f0 }
}
</style>
<path class="a" fill="#4a29af" d="M7.398 8.015c1.689-.154 3.322 1.21 3.468 2.901.255 2.941-.24 6.262-.007 9.215.412 5.19 7.97 6.282 10.012 1.437 1.046-2.483.125-7.986.423-10.928.35-3.467 5.872-3.498 6.238.186-.314 6.234 1.523 12.62-3.774 17.253-7.381 6.457-18.693 1.544-19.231-8.227-.143-2.584-.186-6.38 0-8.94.114-1.56 1.313-2.76 2.87-2.901z"/>
<path fill="#38c2d7" d="M15.59 1.036c4.232-.573 4.756 5.934.626 6.209-3.85.255-4.502-5.685-.625-6.21"/>
</svg>