<svg xmlns="http://www.w3.org/2000/svg" viewBox="0 0 96 24" fill="none" class="h-5 w-auto ltr:h-5" locale="ar"><path fill="currentColor" d="M0 2.128C.441.235 2.929-.533 4.227 1.029c.28.336.584.975.584 1.408v6.487h5.98V2.162c0-.644.907-1.578 1.486-1.81 1.422-.57 3.17.477 3.258 2.013v17.853c-.183 2.211-3.159 3.11-4.389 1.151-.084-.133-.356-.691-.356-.811v-6.831H4.811v6.556c0 1.077-1.121 2.085-2.162 2.165-1.397.107-2.344-.75-2.649-2.062V2.128ZM39.994 0c.752.203 1.561.725 1.857 1.474.057.144.204.635.204.758v15.273h6.631c.29 0 .86.297 1.098.482 1.763 1.372.927 4.137-1.3 4.326-2.855.242-6.046-.185-8.935-.004-1.25-.104-2.114-.928-2.306-2.158l.002-18.194C37.4 1.142 38 .471 38.758.173l.55-.172h.686V0ZM81.912 11.12l5.291-5.252c2.255-1.834 5.226.981 3.436 3.294l-4.74 4.738 4.777 4.769c1.316 1.885-.153 4.044-2.4 3.77-.603-.075-1.086-.562-1.52-.952-1.67-1.499-3.156-3.314-4.844-4.807v3.74c0 .324-.476 1.103-.718 1.343-1.332 1.313-3.414.649-3.993-1.03V1.919c.55-1.805 2.916-2.413 4.16-.92.18.218.551.903.551 1.164v8.959ZM60.457 5.442c1.247-.114 2.452.893 2.56 2.14.188 2.17-.178 4.621-.006 6.8.304 3.83 5.882 4.636 7.389 1.06.771-1.831.091-5.892.311-8.063.259-2.559 4.333-2.581 4.604.137-.232 4.6 1.123 9.313-2.785 12.731-5.447 4.765-13.794 1.14-14.191-6.07-.105-1.907-.137-4.708 0-6.597a2.304 2.304 0 0 1 2.118-2.141v.003ZM25.549 5.582c3.047-.184 3.531 4.078.718 4.561-1.538.266-2.514.154-3.552 1.6-1.327 1.848-.52 6.326-.724 8.681-.238 2.747-4.276 2.756-4.606.066.255-3.121-.607-6.866.654-9.78 1.261-2.914 4.29-4.935 7.508-5.13l.002.002ZM54.137 5.576c1.232-.042 2.157 1.068 2.272 2.224-.199 4.075.293 8.448.012 12.488-.195 2.79-3.96 2.99-4.533.335l-.01-13.039c.056-1.067 1.231-1.97 2.26-2.006v-.002ZM53.79.292c3.215-.433 3.479 4.415.53 4.58-3.08.174-3.265-4.212-.53-4.58Z"></path><path fill="#38C2D7" d="M66.503.292c3.122-.423 3.509 4.38.461 4.582-2.84.188-3.322-4.195-.46-4.582Z"></path></svg>
